<?xml version="1.0" standalone="no"?>
<!DOCTYPE svg PUBLIC "-//W3C//DTD SVG 20010904//EN"
 "http://www.w3.org/TR/2001/REC-SVG-20010904/DTD/svg10.dtd">
<svg version="1.0" xmlns="http://www.w3.org/2000/svg"
 width="541.000000pt" height="481.000000pt" viewBox="0 0 541.000000 481.000000"
 preserveAspectRatio="xMidYMid meet">
<metadata>
Created by potrace 1.16, written by Peter Selinger 2001-2019
</metadata>
<g transform="translate(0.000000,481.000000) scale(0.100000,-0.100000)"
fill="#000000" stroke="none">
<path d="M3941 4184 l-51 -55 60 -56 c99 -91 180 -229 216 -368 13 -48 13 -45
10 65 -3 100 -8 127 -36 205 -31 85 -126 265 -141 265 -4 0 -30 -25 -58 -56z"/>
<path d="M3825 3635 c-38 -18 -79 -19 -69 -4 5 9 -1 10 -22 4 -16 -4 -40 -9
-54 -10 -30 -3 -80 -22 -80 -30 0 -4 10 -4 23 0 17 5 13 -2 -18 -29 l-40 -36
28 0 c35 0 35 -19 -3 -52 -33 -29 -38 -46 -14 -55 29 -11 62 14 74 56 11 43
24 51 79 51 32 0 43 6 70 41 19 22 47 49 65 60 24 15 27 19 11 18 -11 0 -33
-7 -50 -14z"/>
<path d="M4394 3609 c-5 -8 1 -18 14 -27 38 -25 27 -42 -28 -42 l-50 0 6 -43
c5 -36 3 -45 -11 -50 -9 -4 -25 -2 -36 4 -11 5 -32 9 -47 7 -23 -3 -27 -8 -27
-37 0 -47 22 -59 75 -41 36 12 43 12 57 -3 31 -31 5 -39 -93 -28 -49 6 -120
12 -159 13 l-70 3 -3 -57 -3 -58 51 0 c84 0 110 -27 74 -78 -21 -30 -15 -61
17 -85 24 -17 30 -18 55 -6 36 18 43 58 18 105 -17 31 -17 35 -3 50 10 9 41
18 78 21 l61 6 0 -44 c0 -66 17 -119 39 -119 10 0 24 7 31 15 32 39 90 3 90
-56 0 -64 -57 -104 -90 -64 -19 23 -45 18 -58 -10 -7 -14 -12 -56 -12 -93 l0
-68 153 4 c83 2 153 5 155 7 12 10 25 155 24 275 0 164 -19 258 -73 368 -30
62 -30 62 -74 62 -56 0 -75 8 -75 30 0 22 -17 36 -51 45 -17 4 -30 2 -35 -6z"/>
<path d="M4968 3188 c5 -63 16 -80 37 -52 13 16 16 17 25 4 21 -32 5 -150 -21
-150 -4 0 -12 8 -18 17 -5 10 -13 15 -17 11 -6 -6 -44 -152 -44 -170 0 -5 24
-8 54 -8 l53 0 17 58 c24 86 38 219 31 285 l-7 57 -56 0 -57 0 3 -52z"/>
<path d="M3284 3184 c-15 -103 36 -374 71 -374 18 0 39 -36 54 -92 8 -26 22
-55 32 -64 18 -16 19 -16 19 5 0 12 -12 44 -26 71 -28 54 -26 80 6 80 24 0 25
9 5 74 -17 55 -19 102 -6 110 5 3 20 -4 35 -15 35 -28 46 -17 46 45 0 64 -20
97 -47 78 -53 -36 -65 -23 -60 66 l3 63 -30 -3 c-31 -3 -31 -4 -32 -63 -1 -98
-2 -105 -24 -105 -25 0 -35 49 -21 109 5 25 8 49 5 53 -12 19 -23 5 -30 -38z"/>
<path d="M3734 2764 c13 -63 31 -104 46 -104 5 0 15 7 24 15 38 38 86 0 86
-68 0 -46 -20 -57 -61 -33 -27 16 -30 16 -36 1 -3 -10 2 -41 11 -71 16 -51 19
-54 51 -54 53 0 65 -8 65 -47 0 -35 0 -35 -36 -28 l-36 6 49 -93 c46 -88 50
-93 83 -96 19 -2 39 -7 43 -11 5 -5 -4 -6 -20 -4 l-28 5 22 -22 c12 -13 37
-24 57 -27 38 -4 48 9 19 26 -10 6 -13 11 -7 11 6 0 16 -6 22 -13 16 -18 181
-15 193 4 16 26 9 29 -76 29 -92 0 -94 1 -98 56 -2 24 1 28 18 26 57 -9 60 -8
63 24 4 40 -21 63 -49 46 -28 -18 -47 -15 -54 8 -5 15 -15 20 -40 20 -24 0
-39 7 -54 26 -38 48 -16 62 104 66 65 3 70 5 73 27 2 13 -1 28 -7 34 -34 34 7
105 54 93 39 -10 52 -48 31 -92 -22 -47 -9 -64 50 -64 l44 0 1 43 c2 69 12 92
40 91 13 -1 33 -5 45 -9 30 -10 54 19 54 65 0 46 -20 57 -60 34 -43 -26 -60
-13 -60 45 0 49 0 49 -37 56 -21 3 -48 9 -60 12 -19 4 -23 1 -23 -20 0 -14 5
-29 10 -32 16 -10 12 -62 -6 -79 -37 -38 -113 -3 -101 46 19 74 19 80 6 89 -8
5 -35 9 -61 9 -43 0 -47 -2 -51 -27 l-4 -28 -2 28 -1 27 -109 0 c-59 0 -129 3
-154 6 l-45 6 12 -58z"/>
<path d="M4641 2637 c-18 -73 -34 -142 -35 -154 0 -13 -4 -23 -7 -23 -3 0 -18
-31 -33 -69 -15 -38 -42 -94 -61 -126 -19 -32 -35 -60 -35 -63 0 -3 42 -2 93
2 l92 7 58 57 c32 31 78 84 101 117 54 76 59 85 48 85 -5 0 -20 -21 -35 -48
-29 -54 -77 -104 -77 -81 0 8 16 36 35 63 19 27 35 53 35 58 0 4 -15 9 -32 9
-18 1 -26 3 -16 6 9 2 26 28 38 58 24 59 60 102 60 72 0 -10 4 -17 9 -17 10 0
51 79 51 98 0 15 -16 16 -25 2 -9 -15 -25 -12 -25 5 0 9 -10 19 -22 24 -19 7
-25 3 -37 -21 -14 -29 -50 -46 -71 -33 -7 4 -10 24 -8 46 4 40 4 40 -52 54
-12 4 -23 -25 -49 -128z"/>
<path d="M3470 2588 c0 -7 16 -39 36 -71 20 -32 33 -64 30 -72 -9 -24 90 -148
173 -217 30 -25 56 -38 75 -38 l30 0 -39 40 c-36 37 -65 54 -50 30 3 -5 2 -10
-3 -10 -17 0 -86 84 -73 88 6 2 18 -2 26 -8 23 -19 18 -5 -19 53 -26 41 -42
56 -65 60 -26 6 -36 17 -66 82 -33 69 -55 94 -55 63z"/>
<path d="M1078 2343 c2 -65 5 -120 7 -122 3 -2 23 -4 46 -5 33 -1 45 5 65 27
28 33 31 73 8 106 -13 19 -24 22 -55 19 l-39 -4 0 48 c0 39 -3 48 -17 48 -16
0 -18 -11 -15 -117z"/>
<path d="M378 2433 c8 -3 12 -34 12 -103 0 -85 -2 -99 -17 -103 -10 -3 5 -5
32 -6 38 0 46 2 33 10 -12 7 -18 22 -18 49 0 48 21 54 47 13 29 -48 56 -73 76
-73 20 0 20 0 0 23 -11 12 -28 34 -38 49 -16 26 -16 28 4 54 46 58 15 94 -80
93 -35 0 -58 -3 -51 -6z"/>
<path d="M2011 2344 c-35 -44 -22 -103 26 -123 55 -23 103 14 103 78 0 68 -87
98 -129 45z"/>
<path d="M350 1980 l0 -30 2315 0 2315 0 0 30 0 30 -2315 0 -2315 0 0 -30z"/>
<path d="M4022 1352 c3 -266 7 -280 73 -308 45 -19 236 -18 288 1 33 11 44 11
73 -1 26 -11 89 -14 275 -14 l241 0 -4 123 c-5 152 -19 184 -91 207 -26 8 -47
17 -47 20 1 3 32 27 70 53 l70 48 -20 51 c-10 27 -21 52 -24 55 -3 4 -249
-190 -295 -233 -12 -11 -12 -20 -2 -54 6 -22 13 -40 15 -40 2 0 16 7 33 15 16
8 50 18 75 21 38 5 49 3 67 -15 19 -19 21 -31 19 -94 l-3 -72 -150 -2 c-205
-2 -195 -11 -195 167 l0 140 -65 0 -65 0 0 -149 c0 -171 6 -161 -101 -161
-111 0 -109 -5 -109 260 l0 220 -66 0 -66 0 4 -238z"/>
<path d="M3502 1198 c3 -213 4 -224 26 -255 53 -75 191 -100 287 -52 88 44 90
48 93 305 l3 224 -65 0 -66 0 0 -208 c0 -223 -1 -227 -52 -245 -24 -9 -76 11
-88 33 -6 11 -10 108 -10 219 l0 201 -66 0 -65 0 3 -222z"/>
<path d="M588 641 c-3 -156 -15 -187 -76 -205 -67 -19 -116 27 -129 119 -5 39
-9 45 -29 45 -22 0 -24 -4 -24 -47 1 -155 167 -229 269 -119 l24 26 329 0 328
0 6 27 c11 42 -13 144 -43 188 -27 39 -107 90 -124 79 -20 -12 -7 -42 28 -65
51 -34 74 -69 80 -123 l6 -46 -32 0 c-31 0 -32 1 -26 34 15 75 -54 131 -130
106 -44 -15 -69 -59 -60 -106 l6 -34 -73 0 -73 0 3 85 3 85 -25 0 c-25 0 -26
-2 -26 -66 0 -96 -7 -104 -90 -104 l-70 0 0 130 0 130 -24 0 -24 0 -4 -139z"/>
<path d="M1342 640 c2 -118 6 -142 21 -157 16 -16 46 -18 322 -21 l305 -3 25
25 c24 24 25 29 25 161 l0 135 -25 0 -25 0 0 -114 c0 -63 -3 -121 -6 -130 -5
-13 -22 -16 -83 -16 l-76 0 3 130 3 130 -25 0 -26 0 0 -118 c0 -78 -4 -122
-12 -130 -7 -7 -41 -12 -83 -12 l-71 0 4 85 5 85 -31 0 -31 0 -3 -82 -3 -83
-75 0 -75 0 -3 128 -3 127 -30 0 -31 0 4 -140z"/>
</g>
</svg>
